<?xml version="1.0" standalone="no"?>
<!DOCTYPE svg PUBLIC "-//W3C//DTD SVG 20010904//EN"
 "http://www.w3.org/TR/2001/REC-SVG-20010904/DTD/svg10.dtd">
<svg version="1.0" xmlns="http://www.w3.org/2000/svg"
 width="918.000000pt" height="616.000000pt" viewBox="0 0 918.000000 616.000000"
 preserveAspectRatio="xMidYMid meet">

<g transform="translate(0.000000,616.000000) scale(0.100000,-0.100000)"
fill="#000000" stroke="none">
<path d="M0 5217 l0 -942 846 -845 c465 -465 867 -874 893 -910 268 -359 276
-859 21 -1241 -28 -41 -258 -280 -649 -671 l-606 -608 2173 0 c1194 0 2172 4
2172 8 0 5 -7 24 -16 43 -9 19 -25 54 -36 79 -11 25 -36 79 -55 120 -45 97
-57 122 -87 195 -13 33 -45 104 -70 158 -25 53 -46 99 -46 102 0 7 -58 136
-75 167 -8 14 -15 31 -15 37 0 6 -21 53 -46 104 -25 50 -52 108 -59 127 -7 19
-29 69 -49 111 -20 42 -36 80 -36 83 0 4 -13 35 -29 69 -16 34 -39 85 -51 112
-49 111 -63 142 -80 180 -10 22 -21 50 -25 62 -3 12 -23 57 -44 100 -21 43
-53 112 -71 153 -18 41 -43 100 -57 130 -14 30 -28 64 -33 75 -4 11 -25 56
-45 100 -53 116 -67 149 -115 260 -23 55 -60 138 -82 185 -22 47 -44 94 -48
105 -8 19 -29 66 -79 177 -11 26 -21 49 -21 52 0 3 -17 42 -39 88 -43 93 -92
204 -141 323 -19 44 -42 92 -52 107 -10 14 -18 31 -18 37 0 6 -9 27 -19 48
-26 52 -61 131 -61 138 0 7 -20 52 -101 226 -27 58 -49 109 -49 113 0 3 -16
41 -36 84 -115 246 -98 209 -184 407 -28 66 -63 142 -76 169 -13 28 -24 53
-24 58 0 4 -20 50 -45 102 -25 53 -45 99 -45 103 0 5 -18 44 -40 88 -22 44
-40 87 -40 96 0 9 -7 22 -15 29 -8 7 -15 19 -15 26 0 8 -4 22 -10 32 -16 27
-100 211 -100 217 0 6 -18 48 -62 145 -11 25 -31 68 -43 95 -13 28 -32 70 -44
95 -11 25 -27 63 -34 85 -8 22 -27 66 -42 98 l-27 57 -1059 0 -1059 0 0 -943z"/>
</g>
</svg>
