<?xml version="1.0" standalone="no"?>
<!DOCTYPE svg PUBLIC "-//W3C//DTD SVG 20010904//EN"
 "http://www.w3.org/TR/2001/REC-SVG-20010904/DTD/svg10.dtd">
<svg version="1.0" xmlns="http://www.w3.org/2000/svg"
 width="918.000000pt" height="616.000000pt" viewBox="0 0 918.000000 616.000000"
 preserveAspectRatio="xMidYMid meet">

<g transform="translate(0.000000,616.000000) scale(0.100000,-0.100000)"
fill="#000000" stroke="none">
<path d="M0 3080 l0 -3080 328 1 c297 1 321 2 262 14 -70 14 -159 43 -201 66
-28 15 -78 73 -174 203 l-58 79 34 -6 c180 -32 429 -34 531 -5 45 12 38 13
-120 14 -160 0 -274 11 -355 34 l-38 11 6 57 c7 63 35 153 66 213 32 64 74
124 88 127 22 5 208 -57 299 -99 199 -92 332 -209 402 -352 38 -80 120 -312
120 -342 0 -23 1280 -22 1334 0 32 14 36 14 36 0 0 -12 12 -15 54 -15 58 0 76
11 56 35 -11 13 -8 14 21 7 51 -11 330 -7 359 5 20 8 -3 11 -102 11 -172 2
-305 26 -381 69 -19 10 -160 193 -154 199 2 2 30 -1 63 -7 68 -13 317 -7 354
8 19 8 6 9 -51 5 -80 -5 -248 11 -310 30 l-37 10 13 55 c7 30 18 60 24 66 8 8
41 8 118 0 60 -6 110 -9 112 -7 2 2 -15 37 -38 78 -22 41 -41 77 -41 80 0 11
162 -53 225 -89 175 -97 238 -188 311 -446 26 -93 38 -118 50 -107 4 5 -27
140 -51 218 -4 11 22 2 83 -27 110 -53 196 -76 293 -76 67 -1 85 4 153 36 42
20 123 68 181 107 57 39 108 69 112 67 23 -14 591 -86 808 -102 341 -25 822
-23 1115 5 116 12 118 11 167 -13 49 -25 169 -112 253 -184 42 -35 43 -36 23
-8 -30 43 -140 145 -196 184 -27 18 -47 34 -45 36 5 5 255 45 282 45 28 0 131
-65 211 -134 45 -38 54 -44 38 -21 -12 17 -42 50 -67 75 -47 45 -55 67 -34 88
22 22 481 10 519 -13 6 -5 -37 -26 -102 -50 -63 -23 -134 -52 -159 -65 -71
-36 -251 -165 -235 -168 8 -2 56 27 107 64 98 71 194 119 343 174 50 18 94 37
98 41 5 4 -32 33 -82 65 -50 33 -91 61 -91 64 0 3 30 13 68 23 37 10 126 36
197 58 72 22 161 50 198 61 l69 21 68 -33 c67 -33 70 -35 146 -154 99 -153
238 -297 333 -344 96 -48 96 -48 97 61 1 72 6 103 23 144 13 28 29 54 36 57
24 9 115 -105 174 -219 17 -33 31 -53 31 -45 0 23 -67 158 -106 212 l-34 48
113 -6 c107 -6 115 -8 166 -41 30 -19 80 -61 112 -92 33 -31 59 -53 59 -48 0
5 -35 44 -78 87 l-78 78 152 7 c84 4 157 5 162 1 6 -3 17 -27 26 -53 15 -45
15 -49 -1 -62 -33 -25 -237 -120 -313 -145 l-75 -25 353 0 352 -1 0 3080 0
3080 -4590 0 -4590 0 0 -3080z m4618 2661 c10 -5 64 -11 122 -14 142 -8 283
-26 290 -36 3 -5 32 -11 65 -15 33 -3 88 -9 123 -12 34 -4 65 -10 68 -15 3 -5
19 -9 35 -9 17 0 42 -6 57 -13 15 -7 52 -19 82 -26 95 -21 188 -50 295 -92 17
-7 41 -14 55 -16 14 -2 38 -11 54 -19 16 -8 35 -14 43 -14 7 0 13 -4 13 -10 0
-5 9 -10 20 -10 11 0 41 -11 68 -24 26 -14 63 -32 82 -40 71 -30 105 -46 120
-55 15 -9 71 -34 100 -45 8 -4 29 -15 45 -26 17 -11 46 -28 65 -37 38 -19 51
-28 81 -55 10 -10 28 -18 39 -18 11 0 20 -5 20 -10 0 -6 12 -16 28 -22 15 -7
43 -25 63 -40 20 -15 43 -28 51 -28 7 0 25 -11 40 -25 15 -14 31 -25 36 -25 6
0 13 -7 16 -16 3 -8 10 -12 16 -9 5 3 10 -1 10 -9 0 -9 6 -16 14 -16 8 0 21
-6 28 -12 25 -24 138 -108 144 -108 4 0 26 -19 48 -42 23 -24 60 -56 81 -73
22 -16 75 -65 117 -107 42 -43 81 -78 87 -78 6 0 11 -4 11 -10 0 -5 43 -53 95
-106 52 -53 95 -100 95 -104 0 -4 23 -31 50 -59 28 -28 50 -53 50 -56 0 -6 65
-92 112 -149 18 -21 39 -50 47 -64 7 -14 22 -35 32 -46 11 -11 19 -25 19 -30
0 -6 14 -29 30 -50 16 -21 27 -43 23 -49 -3 -6 -2 -7 4 -4 5 4 16 -5 23 -18 7
-14 17 -25 20 -25 4 0 13 -15 21 -32 7 -18 15 -35 18 -38 17 -15 161 -298 161
-316 0 -7 4 -14 9 -14 5 0 22 -33 37 -72 16 -40 32 -75 36 -79 4 -3 20 -39 34
-80 15 -40 30 -78 34 -84 4 -5 11 -25 15 -42 3 -18 10 -33 14 -33 4 0 12 -24
18 -52 10 -47 30 -113 65 -213 6 -16 13 -47 15 -67 3 -21 9 -35 14 -32 5 3 9
-11 9 -30 0 -19 5 -38 10 -41 6 -4 8 -10 5 -15 -2 -4 4 -48 14 -96 10 -49 22
-114 25 -144 4 -30 11 -59 15 -65 5 -5 11 -41 15 -80 4 -38 11 -108 17 -155 5
-47 9 -98 9 -114 0 -15 4 -76 10 -134 9 -84 8 -107 -2 -113 -8 -5 20 -9 67
-11 44 -1 -28 -5 -160 -8 -208 -7 -525 -32 -562 -45 -10 -3 -13 33 -13 160 0
91 -2 165 -5 165 -2 0 -57 -40 -122 -89 -153 -115 -172 -125 -403 -216 -196
-78 -283 -118 -352 -161 -25 -16 -116 -42 -275 -79 -355 -83 -500 -121 -483
-127 12 -5 12 -7 -2 -7 -16 -1 -16 -3 3 -22 12 -12 18 -27 14 -38 -3 -9 2 -26
10 -37 8 -10 15 -33 15 -51 0 -17 4 -34 9 -38 6 -3 13 -27 17 -53 3 -26 11
-53 16 -59 7 -9 7 -13 -1 -13 -8 0 -9 -5 -1 -19 5 -11 10 -38 10 -60 0 -27 4
-41 13 -41 7 0 100 29 205 65 106 36 194 65 195 65 1 0 3 -51 3 -113 1 -116
23 -208 59 -247 12 -14 13 -19 3 -27 -39 -29 -260 -106 -355 -122 -35 -6 -89
-15 -120 -21 -172 -30 -571 -37 -772 -13 l-54 6 174 62 c249 89 225 76 221
125 -5 50 8 52 -215 -28 -153 -55 -160 -59 -195 -104 -43 -57 -33 -57 -304
-28 -257 27 -539 69 -807 120 -29 5 -56 10 -60 10 -3 1 7 6 23 13 l28 12 -106
73 c-60 42 -111 70 -118 66 -7 -4 -8 -3 -4 4 4 7 3 12 -2 12 -9 0 -37 -78 -34
-92 1 -4 -11 -5 -26 -3 -59 11 -199 25 -241 25 l-45 0 24 17 c44 30 98 78 122
108 16 20 3 13 -40 -23 -97 -80 -120 -89 -244 -94 -60 -2 -108 -2 -108 0 0 2
15 21 33 42 39 46 93 136 102 170 3 14 -8 1 -25 -28 -30 -51 -155 -192 -170
-192 -5 0 -16 24 -26 53 -22 62 -24 169 -5 214 11 28 11 34 -2 47 -41 41 -95
172 -83 202 4 9 2 12 -5 8 -7 -4 -9 1 -7 12 3 17 12 19 66 16 77 -4 232 -43
326 -82 38 -16 71 -28 73 -27 1 2 -26 19 -60 39 -71 41 -184 83 -274 101 l-62
13 116 84 c63 47 125 92 136 100 17 12 57 15 205 15 170 0 181 1 140 14 -25 8
-93 14 -166 15 l-123 1 43 39 c24 22 97 89 162 150 66 61 125 109 130 107 6
-2 16 -4 21 -5 6 -1 28 -11 48 -24 21 -12 40 -21 44 -21 3 0 9 -4 13 -11 4 -6
23 33 43 87 49 133 100 294 95 298 -2 3 -27 -4 -56 -15 -74 -28 -278 -88 -342
-100 -30 -6 -170 -15 -310 -20 -513 -20 -618 -47 -770 -199 -184 -185 -320
-476 -320 -686 l0 -83 -86 25 c-48 13 -88 22 -91 19 -3 -2 13 -28 34 -58 21
-29 54 -77 73 -107 l34 -54 -41 -38 c-23 -21 -39 -40 -36 -43 3 -3 -4 -3 -16
-1 -12 2 -73 35 -135 73 -62 39 -132 80 -157 92 l-44 23 86 17 c78 16 179 52
179 64 0 2 -28 -4 -62 -15 -35 -10 -102 -24 -150 -31 l-87 -11 -98 46 c-54 25
-111 51 -127 57 l-29 11 74 35 c79 38 182 108 214 145 l20 23 -25 -17 c-114
-78 -248 -143 -316 -154 l-34 -6 0 52 c0 90 72 256 118 272 10 4 -15 12 -58
19 -144 25 -325 -17 -539 -125 l-111 -55 -188 0 c-231 0 -584 -34 -782 -75
-22 -5 -22 -4 -5 4 11 5 18 10 15 11 -24 7 -40 7 -40 -1 0 -5 -5 -9 -11 -9 -8
0 -8 5 1 15 7 8 16 12 21 9 5 -3 6 103 4 238 -5 233 5 459 26 618 13 103 28
203 40 280 5 36 12 84 15 108 4 23 10 42 15 42 5 0 9 11 9 25 0 13 4 34 9 47
5 13 20 69 32 126 13 56 27 102 31 102 5 0 8 13 8 28 0 15 4 32 8 38 5 5 24
56 43 114 19 58 37 107 41 108 5 2 8 9 8 16 0 7 11 34 23 62 13 27 32 74 43
104 10 30 24 59 31 63 7 4 13 15 13 23 0 8 4 22 9 32 5 9 21 45 37 80 15 34
34 62 41 62 7 0 13 9 13 20 0 26 27 80 40 80 6 0 9 3 9 8 -3 17 2 30 21 52 11
13 19 28 17 34 -4 13 17 36 32 36 6 0 11 7 11 16 0 20 31 76 48 87 6 4 12 17
12 28 0 11 7 22 15 25 8 4 15 12 15 20 0 8 5 14 10 14 6 0 10 5 10 10 0 6 11
23 25 38 14 15 25 32 25 39 0 7 7 13 15 13 8 0 15 9 15 20 0 11 4 20 10 20 5
0 20 19 34 43 14 23 39 56 56 72 16 16 30 32 30 36 0 8 64 81 136 156 23 24
40 43 39 43 -1 0 13 16 31 36 19 19 34 40 34 45 0 5 6 9 13 9 8 0 20 11 27 25
7 13 16 22 20 20 8 -5 40 31 40 45 0 6 9 10 21 10 11 0 18 4 15 9 -8 12 21 34
34 26 5 -3 10 -1 10 5 0 13 25 40 37 40 4 0 18 16 31 36 13 20 26 33 29 30 4
-3 12 3 20 14 8 11 20 20 26 20 7 0 26 14 42 31 17 17 49 44 71 60 23 15 44
35 47 43 4 9 22 22 41 30 38 16 54 27 91 64 12 12 28 22 34 22 6 0 14 6 17 14
3 8 17 17 32 21 14 3 42 20 63 36 20 16 44 29 53 29 9 0 16 3 16 8 0 4 24 20
53 36 28 16 56 35 60 43 4 7 13 13 18 13 12 0 221 101 229 110 5 5 93 46 195
90 28 11 59 25 70 30 11 5 46 16 78 26 32 9 60 21 63 25 3 5 18 9 34 9 16 0
30 7 34 16 4 10 12 14 22 10 9 -4 28 1 42 10 15 10 47 18 73 18 26 1 45 4 43
8 -5 7 34 21 121 42 33 8 76 19 95 24 34 10 192 37 260 46 19 2 53 9 75 15 74
19 185 31 280 31 51 0 96 4 99 9 8 12 472 14 494 2z m-311 -3717 c0 -25 -392
-374 -442 -394 -11 -4 -29 -3 -40 3 -11 6 -24 10 -29 9 -5 -2 -5 5 -1 15 4 10
9 65 11 123 3 90 2 97 -6 48 -26 -160 -79 -307 -131 -359 -20 -20 -78 -65
-130 -101 -116 -80 -125 -85 -114 -68 6 10 4 12 -8 7 -25 -9 -25 12 0 93 29
95 53 236 53 319 0 35 -2 62 -4 60 -2 -2 -11 -47 -20 -99 -31 -184 -88 -347
-155 -443 -25 -36 -49 -55 -128 -95 -54 -27 -114 -57 -135 -65 l-36 -15 18 41
c54 122 106 410 83 452 -8 13 -12 1 -17 -49 -9 -87 -49 -241 -88 -333 -27 -67
-32 -73 -47 -60 -9 8 -21 12 -28 10 -6 -2 -14 1 -18 6 -3 6 -13 11 -20 11 -25
0 -159 87 -198 129 l-37 40 47 93 c85 164 224 327 335 392 97 56 264 88 563
106 278 16 376 28 487 60 77 22 220 71 234 79 0 1 1 -6 1 -15z m3556 -222
c-20 -54 -217 -397 -234 -407 -5 -4 -20 -4 -33 -1 -18 4 -24 17 -35 69 -13 68
-38 120 -27 58 15 -84 18 -200 7 -250 -18 -86 -151 -264 -178 -238 -2 3 -9 50
-13 105 -10 108 -33 211 -56 252 -10 16 -13 18 -9 5 33 -106 42 -368 16 -456
-11 -35 -152 -199 -172 -199 -5 0 -9 41 -9 90 0 94 -21 222 -46 275 l-14 30 5
-35 c25 -176 31 -281 19 -327 -5 -20 -11 -21 -68 -18 -67 4 -144 23 -195 49
-27 14 -31 22 -31 55 0 105 60 295 125 396 64 100 181 172 506 308 182 77 245
112 354 200 79 63 100 73 88 39z m26 -278 c13 -12 13 -35 3 -165 -7 -84 -10
-154 -8 -156 3 -3 108 11 244 33 l32 5 -30 -60 c-30 -58 -32 -60 -83 -70 -28
-6 -84 -19 -123 -28 l-72 -16 -17 -64 c-20 -73 -99 -210 -153 -265 -35 -37
-60 -51 -46 -25 5 9 4 9 -6 0 -10 -9 -25 -4 -69 24 -70 44 -105 76 -143 131
-21 31 -27 47 -20 54 19 19 143 37 257 38 88 1 104 4 80 12 -35 12 -238 15
-278 5 -26 -7 -23 -1 46 100 85 124 101 136 257 188 87 29 97 34 55 29 -44 -5
-144 -35 -198 -59 -14 -6 -10 7 18 56 20 35 58 108 86 162 l49 98 53 -7 c28
-3 58 -12 66 -20z m996 -122 c-102 -98 -163 -145 -179 -139 -11 4 -13 21 -10
69 l4 63 -14 -65 c-18 -86 -41 -141 -69 -163 -55 -44 -108 -78 -116 -73 -5 3
-2 32 5 63 8 32 13 83 13 113 l-1 55 -13 -73 c-17 -96 -43 -166 -75 -202 -32
-37 -145 -98 -135 -72 20 48 35 123 34 172 -1 30 -3 46 -5 35 -20 -101 -28
-133 -43 -166 l-16 -39 -50 24 c-27 13 -65 35 -83 49 l-33 25 35 66 c66 127
136 194 232 222 28 8 134 23 235 34 132 13 204 26 254 44 39 13 77 25 85 25 8
0 -17 -30 -55 -67z m13 -109 c11 -11 9 -23 -12 -75 -72 -181 -103 -234 -182
-311 -65 -63 -95 -75 -127 -50 -33 24 -63 69 -82 122 l-15 44 62 -5 c35 -3 89
-15 121 -26 32 -10 54 -15 49 -10 -15 15 -140 58 -168 58 -22 0 -16 8 47 57
l72 57 88 0 c48 1 82 4 75 8 -6 4 -41 8 -78 8 l-67 0 81 79 c87 83 91 84 136
44z m-7994 -241 l128 -17 17 -55 c50 -160 201 -353 364 -466 l52 -36 -65 6
c-36 4 -139 19 -229 33 -155 26 -166 29 -205 62 -157 132 -428 247 -651 275
-81 11 -107 25 -103 55 1 14 -2 33 -7 41 -5 8 -10 20 -11 25 -1 6 -3 15 -4 20
-5 20 0 48 7 42 3 -4 11 -3 17 2 10 7 131 27 221 35 75 7 340 -6 469 -22z
m651 -9 c67 -18 99 -33 124 -56 67 -65 160 -223 207 -357 16 -45 24 -57 24
-38 0 42 -45 175 -90 262 -35 69 -39 81 -26 94 12 12 28 8 122 -32 60 -26 122
-59 137 -74 40 -38 91 -124 128 -217 17 -44 33 -82 35 -84 8 -9 -10 66 -31
131 -22 65 -22 68 -4 73 10 4 19 10 19 15 0 14 39 -3 163 -71 148 -81 258
-148 280 -172 19 -18 18 -18 -15 -13 -187 33 -291 32 -538 -4 -258 -38 -405
-47 -485 -30 -82 17 -180 70 -269 146 -87 74 -193 204 -175 215 6 4 8 12 4 19
-5 8 -4 11 2 7 6 -4 22 11 36 32 27 41 127 123 164 135 18 6 27 -1 51 -36 39
-57 99 -177 129 -258 l24 -65 -6 48 c-11 81 -60 206 -125 315 l-32 53 28 -7
c16 -3 70 -17 119 -31z m6761 -223 c77 -26 171 -87 359 -230 167 -127 208
-152 340 -206 43 -17 81 -37 83 -43 3 -8 -63 -11 -229 -11 -128 0 -229 3 -226
6 3 4 2 15 -3 24 -8 15 2 30 53 81 66 66 63 66 -22 0 -30 -24 -82 -56 -115
-73 -59 -30 -63 -31 -160 -24 -121 8 -146 14 -146 35 0 9 28 34 62 56 69 44
173 137 190 169 8 14 -1 10 -28 -14 -96 -87 -217 -160 -313 -190 -53 -17 -56
-17 -153 8 -54 14 -98 29 -98 32 0 4 22 19 50 34 68 37 160 112 219 179 36 40
19 33 -36 -15 -56 -49 -169 -123 -217 -143 l-33 -14 -31 67 c-17 37 -35 97
-40 134 l-8 67 45 19 c172 72 344 92 457 52z m231 -16 c-3 -3 -12 -4 -19 -1
-8 3 -5 6 6 6 11 1 17 -2 13 -5z m-46 -18 c-10 -12 -9 -14 6 -12 10 2 12 1 5
-1 -7 -3 -9 -10 -5 -16 3 -6 -8 -1 -25 12 -18 12 -32 23 -32 25 0 1 14 3 31 4
27 2 30 0 20 -12z m-883 -171 c-18 -25 -34 -45 -37 -45 -3 0 -17 9 -31 19
l-24 19 54 25 c30 14 58 26 62 26 4 1 -7 -19 -24 -44z m-3758 -73 c30 -18 75
-51 98 -73 24 -21 46 -39 49 -39 6 0 -52 73 -71 89 -12 10 -13 16 -3 32 14 23
62 24 232 9 140 -12 180 -19 169 -29 -5 -4 -45 -20 -89 -36 -108 -37 -159 -64
-295 -155 -255 -170 -338 -206 -456 -196 -77 6 -202 42 -274 79 -37 19 -45 29
-46 52 -1 38 41 152 70 189 15 18 17 18 72 -15 31 -19 87 -63 125 -97 38 -35
69 -60 69 -55 0 20 -107 127 -172 173 -38 27 -65 51 -61 53 5 3 46 12 91 21
79 15 85 15 136 -4 64 -25 171 -99 244 -170 30 -28 48 -41 41 -29 -20 38 -100
119 -162 164 -43 32 -54 45 -45 53 22 17 49 21 138 19 78 -2 91 -5 140 -35z
m-839 -17 c0 -6 -6 -14 -14 -19 -13 -8 -47 10 -100 55 -5 4 19 -1 53 -10 33
-9 61 -21 61 -26z m-843 -52 c-3 -16 -17 -18 -108 -19 l-105 -2 85 18 c115 24
132 24 128 3z m4587 -113 c-3 -5 -21 -9 -38 -9 l-32 1 30 8 c43 11 47 11 40 0z"/>
<path d="M1836 1228 c-21 -30 -20 -54 4 -78 24 -24 72 -26 90 -5 10 12 10 15
-3 15 -8 0 -17 -6 -20 -12 -2 -7 -7 2 -11 19 -9 39 -2 53 25 53 38 0 13 25
-28 28 -33 2 -44 -1 -57 -20z m39 -18 c3 -5 -1 -10 -9 -10 -9 0 -16 5 -16 10
0 6 4 10 9 10 6 0 13 -4 16 -10z"/>
<path d="M3530 1100 c-43 -43 -11 -120 49 -120 39 0 60 9 71 30 8 14 5 16 -14
13 -46 -9 -62 51 -18 73 29 14 18 24 -30 24 -25 0 -45 -7 -58 -20z m45 -69 c7
-12 -12 -24 -25 -16 -11 7 -4 25 10 25 5 0 11 -4 15 -9z"/>
<path d="M3531 794 c-25 -32 -26 -38 -5 -58 24 -24 71 -20 85 7 9 18 9 20 -2
10 -9 -9 -16 -10 -26 -2 -19 17 -16 49 5 49 14 0 15 2 2 10 -24 15 -37 12 -59
-16z m19 -24 c0 -5 -5 -10 -11 -10 -5 0 -7 5 -4 10 3 6 8 10 11 10 2 0 4 -4 4
-10z"/>
<path d="M6202 625 c-15 -32 -17 -43 -7 -39 14 6 41 71 33 79 -2 3 -14 -15
-26 -40z"/>
<path d="M6012 587 c-25 -26 -29 -67 -8 -67 9 0 12 7 9 21 -5 16 -2 20 8 17 8
-3 13 -11 12 -17 -6 -24 9 -9 18 19 6 17 18 30 27 30 15 0 15 2 2 10 -24 16
-45 12 -68 -13z"/>
<path d="M3231 1696 c-10 -12 -24 -16 -43 -14 -30 5 -37 -9 -16 -30 30 -30 83
-3 76 39 -3 21 -4 21 -17 5z m-21 -36 c0 -5 -4 -10 -10 -10 -5 0 -10 5 -10 10
0 6 5 10 10 10 6 0 10 -4 10 -10z"/>
<path d="M7531 914 c-12 -15 -21 -33 -21 -40 0 -23 38 -54 65 -54 24 0 65 31
65 48 0 5 -13 7 -30 4 -20 -3 -30 0 -32 9 -4 38 -2 45 12 51 10 4 6 7 -12 7
-17 1 -34 -8 -47 -25z m40 -67 c-13 -13 -26 -3 -16 12 3 6 11 8 17 5 6 -4 6
-10 -1 -17z"/>
<path d="M8397 1286 c-4 -10 -5 -21 -2 -24 9 -9 17 6 13 25 -3 17 -4 17 -11
-1z"/>
<path d="M8360 1281 c0 -5 5 -13 10 -16 6 -3 10 -2 10 4 0 5 -4 13 -10 16 -5
3 -10 2 -10 -4z"/>
<path d="M8562 988 c-25 -25 -7 -68 29 -68 9 0 22 7 29 15 10 12 10 15 -3 15
-22 0 -31 18 -17 35 10 12 9 15 -7 15 -10 0 -24 -5 -31 -12z m23 -38 c3 -5 1
-10 -4 -10 -6 0 -11 5 -11 10 0 6 2 10 4 10 3 0 8 -4 11 -10z"/>
<path d="M1662 634 c-12 -8 -22 -24 -22 -35 0 -18 2 -19 15 -5 8 8 15 20 15
27 0 6 11 0 25 -15 l25 -27 0 25 c0 34 -30 50 -58 30z"/>
<path d="M8285 709 c-4 -5 -4 -21 -1 -35 7 -28 37 -32 57 -7 13 15 11 16 -17
10 -29 -5 -31 -4 -26 19 5 25 -2 32 -13 13z"/>
<path d="M3603 303 c-7 -2 -13 -17 -13 -31 0 -20 3 -23 9 -12 6 8 7 18 5 22
-3 5 7 6 23 2 25 -7 27 -6 14 9 -14 18 -18 19 -38 10z"/>
<path d="M870 300 c-44 -44 -4 -113 53 -91 14 5 28 15 33 22 4 8 3 10 -4 5
-15 -9 -48 9 -56 30 -4 10 1 25 10 35 16 18 16 19 1 19 -10 0 -26 -9 -37 -20z
m20 -40 c0 -5 -4 -10 -10 -10 -5 0 -10 5 -10 10 0 6 5 10 10 10 6 0 10 -4 10
-10z"/>
<path d="M2924 279 c-14 -15 -16 -24 -8 -37 13 -21 52 -28 68 -12 6 6 7 11 1
10 -17 -3 -55 12 -55 21 0 5 4 9 9 9 5 0 11 7 15 15 8 21 -8 18 -30 -6z"/>
<path d="M8177 182 c-34 -37 -6 -92 45 -92 29 0 30 1 14 13 -24 18 -17 51 12
55 27 4 28 18 3 32 -29 15 -56 12 -74 -8z m24 -45 c-13 -13 -26 -3 -16 12 3 6
11 8 17 5 6 -4 6 -10 -1 -17z"/>
<path d="M5765 131 c-3 -6 3 -15 14 -21 11 -5 50 -33 86 -61 36 -28 71 -49 77
-47 15 5 -132 138 -154 138 -9 0 -19 -4 -23 -9z"/>
<path d="M5585 60 c-11 -5 -49 -21 -85 -34 l-65 -25 76 0 76 -1 10 35 c6 19
10 35 10 34 -1 0 -11 -4 -22 -9z"/>
</g>
</svg>
